<?xml version="1.0" encoding="UTF-8" standalone="no"?>
<!-- Created with Inkscape (http://www.inkscape.org/) -->

<svg
   xmlns:dc="http://purl.org/dc/elements/1.1/"
   xmlns:cc="http://creativecommons.org/ns#"
   xmlns:rdf="http://www.w3.org/1999/02/22-rdf-syntax-ns#"
   xmlns:svg="http://www.w3.org/2000/svg"
   xmlns="http://www.w3.org/2000/svg"
   xmlns:sodipodi="http://sodipodi.sourceforge.net/DTD/sodipodi-0.dtd"
   xmlns:inkscape="http://www.inkscape.org/namespaces/inkscape"
   width="64"
   height="64"
   viewBox="0 0 16.933333 16.933334"
   version="1.1"
   id="svg8"
   inkscape:version="0.92.5 (2060ec1f9f, 2020-04-08)"
   sodipodi:docname="Big.Curve.North.East.svg">
  <defs
     id="defs2" />
  <sodipodi:namedview
     id="base"
     pagecolor="#ffffff"
     bordercolor="#666666"
     borderopacity="1.0"
     inkscape:pageopacity="0.0"
     inkscape:pageshadow="2"
     inkscape:zoom="16"
     inkscape:cx="56.062282"
     inkscape:cy="49.003768"
     inkscape:document-units="px"
     inkscape:current-layer="layer1"
     showgrid="false"
     units="px"
     inkscape:window-width="3840"
     inkscape:window-height="2089"
     inkscape:window-x="0"
     inkscape:window-y="0"
     inkscape:window-maximized="1" />
  <metadata
     id="metadata5">
    <rdf:RDF>
      <cc:Work
         rdf:about="">
        <dc:format>image/svg+xml</dc:format>
        <dc:type
           rdf:resource="http://purl.org/dc/dcmitype/StillImage" />
        <dc:title></dc:title>
      </cc:Work>
    </rdf:RDF>
  </metadata>
  <g
     inkscape:label="Layer 1"
     inkscape:groupmode="layer"
     id="layer1"
     transform="translate(0,-280.06665)">
    <g
       id="g198"
       transform="rotate(-90,8.4666642,288.53332)">
      <path
         id="path75"
         transform="matrix(0.26458334,0,0,0.26458334,0,280.06665)"
         d="M 0,10 V 22 A 42,42 0 0 1 42,64 H 54 A 54.000001,54.000001 0 0 0 0,10 Z"
         style="fill:#808080;stroke-width:1"
         inkscape:connector-curvature="0" />
      <path
         inkscape:connector-curvature="0"
         id="path97"
         d="m 0,282.18332 v 0.52916 a 14.287501,14.287501 0 0 1 14.2875,14.2875 h 0.529167 A 14.816667,14.816667 0 0 0 10.47688,286.5231 14.816667,14.816667 0 0 0 0,282.18332 Z"
         style="fill:#800000;stroke-width:0.26458335" />
      <path
         inkscape:connector-curvature="0"
         id="path117"
         d="m 0,284.16768 v 0.26459 a 12.567708,12.567708 0 0 1 12.567709,12.56771 h 0.264583 A 12.832292,12.832292 0 0 0 0,284.16768 Z"
         style="fill:#ffffff;stroke-width:0.26458335" />
    </g>
  </g>
</svg>
