<?xml version="1.0" encoding="UTF-8" standalone="no"?>
<svg
   xmlns:dc="http://purl.org/dc/elements/1.1/"
   xmlns:cc="http://creativecommons.org/ns#"
   xmlns:rdf="http://www.w3.org/1999/02/22-rdf-syntax-ns#"
   xmlns:svg="http://www.w3.org/2000/svg"
   xmlns="http://www.w3.org/2000/svg"
   xmlns:xlink="http://www.w3.org/1999/xlink"
   xmlns:sodipodi="http://sodipodi.sourceforge.net/DTD/sodipodi-0.dtd"
   xmlns:inkscape="http://www.inkscape.org/namespaces/inkscape"
   width="32"
   height="32"
   viewBox="0 0 8.4666659 8.4666659"
   version="1.1"
   id="svg8"
   inkscape:version="1.0.2 (e86c870879, 2021-01-15, custom)"
   sodipodi:docname="Small.Cross.North.West.South.svg">
  <defs
     id="defs2">
    <clipPath
       clipPathUnits="userSpaceOnUse"
       id="clipPath68">
      <g
         inkscape:label="Clip"
         id="use70"
         style="fill:#ffffff">
        <g
           id="g112"
           style="fill:#ffffff">
          <path
             id="path110"
             style="color:#000000;font-style:normal;font-variant:normal;font-weight:normal;font-stretch:normal;font-size:medium;line-height:normal;font-family:sans-serif;font-variant-ligatures:normal;font-variant-position:normal;font-variant-caps:normal;font-variant-numeric:normal;font-variant-alternates:normal;font-variant-east-asian:normal;font-feature-settings:normal;font-variation-settings:normal;text-indent:0;text-align:start;text-decoration:none;text-decoration-line:none;text-decoration-style:solid;text-decoration-color:#000000;letter-spacing:normal;word-spacing:normal;text-transform:none;writing-mode:lr-tb;direction:ltr;text-orientation:mixed;dominant-baseline:auto;baseline-shift:baseline;text-anchor:start;white-space:normal;shape-padding:0;shape-margin:0;inline-size:0;clip-rule:nonzero;display:inline;overflow:visible;visibility:visible;opacity:1;isolation:auto;mix-blend-mode:normal;color-interpolation:sRGB;color-interpolation-filters:linearRGB;solid-color:#000000;solid-opacity:1;vector-effect:none;fill:#ffffff;fill-opacity:1;fill-rule:nonzero;stroke:none;stroke-width:1.63321;stroke-linecap:butt;stroke-linejoin:miter;stroke-miterlimit:4;stroke-dasharray:none;stroke-dashoffset:0;stroke-opacity:1;color-rendering:auto;image-rendering:auto;shape-rendering:auto;text-rendering:auto;enable-background:accumulate;stop-color:#000000;stop-opacity:1"
             d="m -23.019531,16.824219 -0.101563,0.99414 c 0.520879,0.0528 1.034556,0.131138 1.539063,0.234375 0.504506,0.103237 1.000815,0.23157 1.486328,0.382813 l 0.296875,-0.955078 c -0.516773,-0.160575 -1.044976,-0.296352 -1.582031,-0.40625 -0.537055,-0.109898 -1.084267,-0.19349 -1.638672,-0.25 z m 6.177734,1.90625 -0.474609,0.878906 c 0.439228,0.238764 0.865039,0.498798 1.277344,0.777344 0.412303,0.278546 0.810848,0.576725 1.193359,0.892578 l 0.634765,-0.771485 c -0.407316,-0.336467 -0.830628,-0.654654 -1.269531,-0.951171 -0.438903,-0.296517 -0.893748,-0.572114 -1.361328,-0.826172 z m 6.9394532,9.898437 c 0.1512438,0.485513 0.2795754,0.981822 0.3828126,1.486328 0.1032371,0.504507 0.1815708,1.018185 0.234375,1.539063 l 0.9941406,-0.101563 c -0.05651,-0.554405 -0.1401027,-1.101614 -0.25,-1.638672 -0.1098976,-0.537057 -0.2456741,-1.065258 -0.40625,-1.582031 M -10.197266,25.375 c -0.254058,-0.467581 -0.529652,-0.922425 -0.826172,-1.361328 -0.296518,-0.438902 -0.614704,-0.862215 -0.951171,-1.269531 l -0.769532,0.634765 c 0.316341,0.382512 0.61403,0.781057 0.892579,1.19336 0.278546,0.412302 0.537114,0.838115 0.77539,1.277343"
             transform="scale(0.26458331)"
             sodipodi:nodetypes="ccsccscccsccsccsccsccsccsc" />
        </g>
      </g>
    </clipPath>
    <clipPath
       clipPathUnits="userSpaceOnUse"
       id="clipPath68-9">
      <use
         x="0"
         y="0"
         xlink:href="#g64"
         id="use70-4"
         width="100%"
         height="100%" />
    </clipPath>
  </defs>
  <sodipodi:namedview
     id="base"
     pagecolor="#ffffff"
     bordercolor="#666666"
     borderopacity="1.0"
     inkscape:pageopacity="0.0"
     inkscape:pageshadow="2"
     inkscape:zoom="28.181811"
     inkscape:cx="6.0049961"
     inkscape:cy="24.988281"
     inkscape:document-units="px"
     inkscape:current-layer="g48"
     inkscape:document-rotation="0"
     showgrid="false"
     units="px"
     inkscape:window-width="3840"
     inkscape:window-height="2080"
     inkscape:window-x="-11"
     inkscape:window-y="-11"
     inkscape:window-maximized="1" />
  <metadata
     id="metadata5">
    <rdf:RDF>
      <cc:Work
         rdf:about="">
        <dc:format>image/svg+xml</dc:format>
        <dc:type
           rdf:resource="http://purl.org/dc/dcmitype/StillImage" />
        <dc:title></dc:title>
      </cc:Work>
    </rdf:RDF>
  </metadata>
  <g
     inkscape:label="Ebene 1"
     inkscape:groupmode="layer"
     id="layer1" />
  <g
     inkscape:label="Ebene 1 Kopie"
     inkscape:groupmode="layer"
     id="g48">
    <g
       id="g262">
      <g
         id="g163"
         transform="rotate(90,4.2333329,4.2333329)">
        <rect
           style="fill:#808080;stroke-width:0.393148"
           id="rect90"
           width="8.4666662"
           height="3.1749997"
           x="0"
           y="2.645833" />
        <g
           id="g88"
           transform="rotate(-90,4.2333329,4.2333329)">
          <path
             id="path31"
             style="fill:#808080;stroke-width:0.771848"
             d="M 5.8208328,0 H 2.6458331 A 2.645833,2.645833 0 0 1 0,2.6458331 V 5.8208328 A 5.8208328,5.8208328 0 0 0 5.8208328,0 Z" />
          <g
             id="g66"
             clip-path="url(#clipPath68-9)"
             transform="rotate(90,1.1288715,7.6881813)"
             style="fill:#ffffff">
            <g
               inkscape:label="Clip"
               id="g64"
               style="fill:#ffffff">
              <g
                 id="g77"
                 style="fill:#ffffff">
                <path
                   id="path42"
                   style="color:#000000;font-style:normal;font-variant:normal;font-weight:normal;font-stretch:normal;font-size:medium;line-height:normal;font-family:sans-serif;font-variant-ligatures:normal;font-variant-position:normal;font-variant-caps:normal;font-variant-numeric:normal;font-variant-alternates:normal;font-variant-east-asian:normal;font-feature-settings:normal;font-variation-settings:normal;text-indent:0;text-align:start;text-decoration:none;text-decoration-line:none;text-decoration-style:solid;text-decoration-color:#000000;letter-spacing:normal;word-spacing:normal;text-transform:none;writing-mode:lr-tb;direction:ltr;text-orientation:mixed;dominant-baseline:auto;baseline-shift:baseline;text-anchor:start;white-space:normal;shape-padding:0;shape-margin:0;inline-size:0;clip-rule:nonzero;display:inline;overflow:visible;visibility:visible;opacity:1;isolation:auto;mix-blend-mode:normal;color-interpolation:sRGB;color-interpolation-filters:linearRGB;solid-color:#000000;solid-opacity:1;vector-effect:none;fill:#ffffff;fill-opacity:1;fill-rule:nonzero;stroke:none;stroke-width:1.63321;stroke-linecap:butt;stroke-linejoin:miter;stroke-miterlimit:4;stroke-dasharray:none;stroke-dashoffset:0;stroke-opacity:1;color-rendering:auto;image-rendering:auto;shape-rendering:auto;text-rendering:auto;enable-background:accumulate;stop-color:#000000;stop-opacity:1"
                   d="m -23.019531,16.824219 -0.101563,0.99414 c 0.520879,0.0528 1.034556,0.131138 1.539063,0.234375 0.504506,0.103237 1.000815,0.23157 1.486328,0.382813 l 0.296875,-0.955078 c -0.516773,-0.160575 -1.044976,-0.296352 -1.582031,-0.40625 -0.537055,-0.109898 -1.084267,-0.19349 -1.638672,-0.25 z m 6.177734,1.90625 -0.474609,0.878906 c 0.439228,0.238764 0.865039,0.498798 1.277344,0.777344 0.412303,0.278546 0.810848,0.576725 1.193359,0.892578 l 0.634765,-0.771485 c -0.407316,-0.336467 -0.830628,-0.654654 -1.269531,-0.951171 -0.438903,-0.296517 -0.893748,-0.572114 -1.361328,-0.826172 z m 6.9394532,9.898437 c 0.1512438,0.485513 0.2795754,0.981822 0.3828126,1.486328 0.1032371,0.504507 0.1815708,1.018185 0.234375,1.539063 l 0.9941406,-0.101563 c -0.05651,-0.554405 -0.1401027,-1.101614 -0.25,-1.638672 -0.1098976,-0.537057 -0.2456741,-1.065258 -0.40625,-1.582031 M -10.197266,25.375 c -0.254058,-0.467581 -0.529652,-0.922425 -0.826172,-1.361328 -0.296518,-0.438902 -0.614704,-0.862215 -0.951171,-1.269531 l -0.769532,0.634765 c 0.316341,0.382512 0.61403,0.781057 0.892579,1.19336 0.278546,0.412302 0.537114,0.838115 0.77539,1.277343"
                   transform="scale(0.26458331)"
                   sodipodi:nodetypes="ccsccscccsccsccsccsccsccsc" />
              </g>
            </g>
          </g>
        </g>
      </g>
      <rect
         style="fill:#f9f9f9;stroke-width:0.298496"
         id="rect209"
         width="0.26458332"
         height="1.0583333"
         x="4.1010413"
         y="6.8791661" />
      <rect
         style="fill:#f9f9f9;stroke-width:0.298496"
         id="rect209-6"
         width="0.26458332"
         height="1.0583333"
         x="4.1010413"
         y="4.7624993" />
      <rect
         style="fill:#f9f9f9;stroke-width:0.298496"
         id="rect209-6-8"
         width="0.26458332"
         height="1.0583333"
         x="4.1010413"
         y="2.645833" />
    </g>
  </g>
</svg>
